<?xml version="1.0" standalone="no"?>
<!DOCTYPE svg PUBLIC "-//W3C//DTD SVG 20010904//EN"
 "http://www.w3.org/TR/2001/REC-SVG-20010904/DTD/svg10.dtd">
<svg version="1.0" xmlns="http://www.w3.org/2000/svg"
 width="640.000000pt" height="640.000000pt" viewBox="0 0 640.000000 640.000000"
 preserveAspectRatio="xMidYMid meet">

<g transform="translate(0.000000,640.000000) scale(0.100000,-0.100000)"
fill="#000000" stroke="none">
<path d="M2490 5509 c-25 -4 -67 -8 -95 -8 -79 -2 -134 -33 -281 -162 -126
-109 -188 -178 -292 -322 -64 -89 -83 -113 -153 -191 -50 -56 -89 -115 -89
-135 0 -16 90 -173 170 -296 22 -33 54 -85 71 -115 117 -200 272 -390 318
-390 11 0 23 -4 26 -10 3 -5 21 -10 40 -10 19 0 37 -4 40 -10 10 -16 58 -11
92 10 17 10 105 93 195 183 222 222 417 401 453 414 57 22 93 24 241 14 152
-11 257 -15 307 -12 37 1 80 45 72 71 -5 16 -2 20 19 20 21 0 26 5 26 23 0 13
-3 26 -6 30 -3 3 -25 47 -48 99 -133 289 -128 280 -199 402 -101 171 -130 207
-201 243 -50 25 -159 64 -256 90 -45 12 -405 76 -405 72 0 -1 -20 -5 -45 -10z
m148 -53 c31 -8 100 -22 152 -32 52 -9 122 -24 155 -34 33 -10 96 -28 140 -40
125 -35 127 -37 171 -103 80 -121 222 -394 305 -588 29 -66 19 -77 -52 -61
-85 20 -370 15 -476 -7 -136 -29 -285 -117 -451 -266 -87 -77 -308 -302 -358
-364 l-40 -49 -28 25 c-78 66 -202 226 -301 386 -187 302 -225 361 -235 371
-6 6 19 39 73 95 45 47 128 147 183 221 56 74 137 168 180 209 44 41 102 95
129 121 28 26 77 66 109 89 l59 41 114 0 c66 0 137 -6 171 -14z m771 -906
c113 -8 155 -19 138 -36 -4 -4 -12 -2 -20 4 -8 7 -94 12 -242 13 -266 3 -284
-1 -398 -81 -67 -47 -241 -214 -479 -459 -65 -67 -121 -121 -125 -121 -5 0
-17 7 -28 16 -18 14 -14 20 100 135 98 98 281 266 391 357 11 9 42 36 70 58
66 56 164 104 211 104 21 0 45 5 53 10 19 12 166 12 329 0z"/>
<path d="M2435 5420 c-4 -6 17 -43 45 -83 75 -106 151 -239 259 -452 53 -105
108 -205 121 -223 25 -34 50 -42 50 -16 0 14 -41 94 -60 119 -4 6 -49 90 -100
188 -82 161 -258 450 -285 469 -14 11 -23 10 -30 -2z"/>
<path d="M2325 5391 c-3 -5 -1 -13 5 -16 13 -8 116 -162 160 -240 19 -33 44
-78 57 -100 12 -22 41 -78 64 -125 120 -243 195 -358 220 -333 8 8 1 28 -25
73 -20 33 -36 63 -36 65 0 2 -13 27 -30 54 -16 28 -55 99 -86 158 -31 60 -84
154 -118 211 -33 56 -72 121 -85 143 -27 48 -93 119 -109 119 -6 0 -13 -4 -17
-9z"/>
<path d="M3745 4676 c-5 -2 -22 -7 -37 -10 -62 -14 -20 -22 115 -23 119 0 151
-4 197 -22 115 -44 202 -170 295 -434 20 -56 41 -111 46 -122 16 -37 97 -250
114 -300 18 -54 40 -85 62 -85 15 0 17 25 4 66 -5 16 -17 56 -27 89 -9 33 -21
67 -25 75 -4 8 -26 67 -49 130 -108 299 -183 458 -252 528 -23 24 -69 58 -102
75 -58 29 -68 31 -196 34 -74 1 -139 1 -145 -1z"/>
<path d="M3805 4533 c-11 -2 -30 -6 -42 -9 -13 -2 -23 -11 -23 -19 0 -13 16
-14 109 -9 99 6 113 5 154 -15 31 -15 55 -37 75 -69 44 -70 62 -110 187 -432
31 -80 64 -155 72 -168 17 -27 56 -27 61 0 2 10 -22 79 -53 155 -31 76 -64
156 -72 178 -34 84 -126 271 -150 303 -13 18 -48 46 -76 62 -47 27 -60 30
-137 29 -47 -1 -94 -3 -105 -6z"/>
<path d="M3153 4443 c-9 -3 -13 -26 -13 -64 0 -65 -33 -159 -77 -217 -29 -39
-113 -89 -165 -97 -24 -4 -74 1 -138 15 -99 22 -157 21 -117 -1 34 -19 203
-59 252 -59 89 0 205 71 244 149 11 20 28 67 40 104 17 58 19 75 10 117 -11
53 -16 60 -36 53z"/>
<path d="M3890 4420 c0 -6 6 -23 14 -38 7 -15 39 -101 71 -192 61 -175 94
-248 119 -270 26 -21 30 -4 13 47 -130 381 -165 463 -197 463 -11 0 -20 -5
-20 -10z"/>
<path d="M3790 4410 c0 -6 12 -39 26 -73 15 -34 44 -118 66 -187 37 -118 76
-186 94 -167 7 7 -14 82 -62 220 -34 96 -95 217 -111 217 -7 0 -13 -5 -13 -10z"/>
<path d="M3530 4380 c-11 -7 -11 -14 2 -42 9 -18 24 -55 34 -83 32 -88 92
-202 109 -208 27 -11 27 17 2 74 -13 30 -30 70 -37 89 -20 52 -78 168 -88 174
-4 2 -14 1 -22 -4z"/>
<path d="M3417 4364 c-3 -3 11 -36 31 -72 20 -37 53 -98 72 -137 20 -41 42
-71 53 -73 27 -5 21 19 -38 135 -65 129 -96 168 -118 147z"/>
<path d="M3117 4102 c-8 -12 25 -67 83 -137 73 -88 180 -154 180 -111 0 8 -20
26 -45 40 -48 29 -63 63 -22 52 12 -3 52 -9 90 -12 77 -8 78 -9 52 -109 -21
-80 -60 -167 -110 -245 -50 -77 -69 -95 -155 -147 -98 -59 -165 -74 -334 -75
-80 0 -148 2 -153 5 -4 3 -51 10 -103 16 -116 14 -221 41 -227 59 -3 7 36 55
88 107 99 100 164 194 175 254 9 44 -9 176 -31 227 -25 62 -36 30 -24 -76 5
-52 7 -114 4 -136 -11 -79 -100 -201 -223 -307 -60 -52 -70 -58 -100 -52 -82
15 -345 -219 -577 -515 -16 -21 -44 -55 -62 -76 -59 -72 -176 -228 -221 -294
-62 -93 -85 -141 -131 -277 -36 -105 -41 -132 -41 -209 0 -188 67 -382 164
-480 91 -91 183 -122 431 -144 66 -6 158 -16 205 -21 47 -6 119 -12 160 -13
41 -2 105 -6 142 -11 l67 -7 22 -47 c139 -299 232 -461 315 -547 69 -71 52
-13 -39 134 -103 167 -223 401 -215 420 1 5 57 -6 123 -25 66 -18 147 -41 180
-50 33 -9 65 -20 70 -23 6 -4 34 -15 63 -26 43 -15 58 -16 83 -7 49 19 63 -15
67 -156 4 -123 11 -140 60 -141 17 0 31 13 54 50 25 40 36 50 58 50 15 0 34 8
43 18 9 10 51 31 92 47 66 25 79 34 96 67 11 21 19 58 19 84 0 38 2 44 14 35
16 -14 33 -75 41 -153 7 -64 30 -88 84 -88 24 0 34 7 47 31 21 42 29 130 15
170 -10 30 -9 34 22 64 18 18 50 64 70 103 21 39 49 85 63 102 25 29 25 30 5
30 -26 0 -62 -39 -97 -104 -15 -28 -38 -69 -52 -90 l-24 -39 -14 24 c-7 13
-13 32 -14 42 0 27 67 154 101 189 20 22 26 35 19 42 -15 15 -79 -51 -115
-119 -30 -55 -45 -68 -45 -40 0 8 5 15 10 15 6 0 10 7 10 15 0 25 30 76 69
120 30 34 33 40 17 43 -23 5 -60 -30 -103 -96 -54 -84 -85 -51 -39 41 44 88
65 120 106 164 33 35 53 46 122 66 170 50 174 50 227 22 45 -25 176 -164 176
-187 0 -6 -32 -33 -71 -59 -40 -28 -83 -67 -99 -91 -30 -45 -54 -130 -55 -190
0 -21 -4 -38 -10 -38 -19 0 -30 40 -30 105 0 71 18 127 46 143 18 10 14 42 -5
42 -35 0 -133 -129 -187 -244 -28 -60 -30 -79 -8 -74 9 2 34 38 56 81 22 42
44 77 49 77 5 0 9 -20 9 -45 0 -58 22 -100 62 -121 32 -17 32 -17 61 17 26 32
28 38 22 91 -6 48 -3 66 15 104 21 42 107 124 131 124 5 0 40 30 77 66 37 36
87 76 112 89 25 12 70 41 100 64 30 23 60 41 66 41 6 0 19 -26 28 -57 10 -32
22 -69 26 -83 5 -14 23 -83 40 -155 18 -71 38 -140 46 -152 14 -23 38 -30 48
-15 14 23 -102 434 -136 478 -10 13 8 29 83 77 61 39 238 183 276 226 36 40
224 287 262 344 31 47 71 164 71 208 0 10 -7 40 -16 66 -58 176 -177 320 -464
563 -36 30 -113 101 -172 157 -59 56 -124 114 -145 129 -21 16 -67 52 -103 80
-62 49 -237 145 -290 159 -14 3 -34 10 -45 15 -196 87 -317 120 -437 120 -83
0 -98 -2 -98 -16 0 -14 -14 -15 -132 -9 -73 4 -141 11 -150 16 -10 5 -36 34
-58 64 -39 53 -53 64 -63 47z m600 -152 c55 -13 354 -139 468 -197 119 -61
254 -163 395 -298 63 -61 137 -128 165 -150 169 -135 396 -356 424 -412 34
-68 51 -125 51 -174 0 -76 -50 -202 -107 -266 -15 -17 -37 -44 -48 -59 -123
-173 -277 -318 -485 -459 -47 -31 -96 -67 -110 -80 -14 -12 -54 -43 -90 -67
-36 -24 -80 -55 -98 -68 -33 -25 -34 -25 -48 -5 -37 52 -142 146 -185 167 -27
12 -49 29 -49 38 0 8 26 39 58 70 77 75 125 130 157 180 15 23 43 61 64 84 39
43 112 142 172 233 56 85 213 248 295 305 72 50 96 88 57 88 -43 0 -227 -152
-337 -279 -21 -24 -41 -39 -46 -35 -13 14 -112 316 -106 322 4 3 16 -4 29 -15
54 -49 162 -114 184 -111 37 5 30 20 -21 48 -40 21 -111 74 -227 168 -17 14
-54 75 -91 150 -82 168 -104 202 -128 202 -11 0 -20 -4 -20 -9 0 -4 22 -55 48
-112 119 -254 162 -360 212 -516 22 -69 50 -142 61 -163 26 -46 30 -35 -85
-189 -39 -51 -89 -119 -111 -151 -57 -82 -145 -187 -201 -242 -37 -34 -64 -50
-109 -63 -105 -30 -181 -65 -213 -98 -16 -18 -54 -74 -83 -124 -28 -51 -57
-93 -64 -93 -6 0 -20 9 -29 19 -30 33 -116 64 -192 69 l-71 4 -9 52 -9 51 -75
36 c-72 35 -179 68 -340 105 -41 9 -109 29 -150 44 -158 59 -188 68 -282 90
-69 15 -98 26 -98 36 0 8 -12 51 -27 95 -27 78 -27 82 -10 111 48 84 -4 77
-101 -14 -71 -66 -129 -112 -204 -160 -39 -24 -35 -35 15 -41 76 -10 280 -48
291 -54 6 -4 28 -10 51 -14 124 -21 249 -58 308 -90 9 -5 43 -16 75 -23 82
-20 289 -75 347 -92 28 -8 75 -27 105 -42 l55 -27 -4 -90 c-3 -96 -13 -128
-81 -271 -25 -50 -47 -85 -59 -89 -12 -3 -40 4 -68 18 -26 13 -66 29 -88 35
-22 6 -105 30 -185 52 -80 22 -159 45 -175 50 -34 11 -135 26 -270 40 -49 5
-142 16 -205 25 -63 8 -167 19 -230 25 -140 12 -200 25 -263 57 -83 41 -129
97 -170 204 -70 180 -75 280 -21 449 20 63 46 136 58 164 23 51 109 175 214
310 31 40 80 101 107 136 28 35 82 102 120 149 39 47 88 111 111 141 59 79
139 165 217 232 79 68 94 70 200 32 151 -55 353 -86 558 -86 182 0 237 13 339
79 94 62 103 70 153 153 85 142 129 263 131 357 l1 63 70 0 c39 0 89 -5 112
-10z m-1556 -1795 c6 -25 15 -48 20 -51 5 -3 9 -10 9 -16 0 -11 -188 -3 -200
8 -6 7 60 64 73 64 5 0 20 9 34 20 38 30 51 25 64 -25z m1218 -557 c81 -40
142 -102 198 -200 56 -99 79 -199 61 -264 -24 -86 -43 -69 -58 54 -13 97 -37
131 -107 146 l-32 7 6 -54 c6 -61 -2 -111 -17 -102 -6 3 -10 20 -10 36 0 24
-4 30 -17 27 -13 -2 -20 -16 -24 -45 -5 -41 -23 -73 -41 -73 -6 0 -7 26 -3 66
7 60 6 66 -11 62 -14 -2 -21 -19 -30 -72 -14 -75 -36 -116 -60 -116 -14 0 -15
7 -8 48 5 26 9 76 9 112 0 51 -3 65 -15 65 -15 0 -20 -18 -41 -173 -14 -97
-42 -163 -61 -144 -5 5 -11 56 -12 113 -1 79 -6 113 -20 141 l-19 37 31 58
c41 78 76 178 97 276 5 26 8 27 61 27 43 0 72 -8 123 -32z"/>
<path d="M2207 3024 c-7 -7 0 -52 15 -103 6 -18 13 -97 17 -174 4 -90 10 -142
17 -144 44 -15 42 288 -2 395 -12 30 -32 41 -47 26z"/>
<path d="M1785 4011 c-146 -53 -263 -112 -391 -196 -218 -143 -252 -198 -240
-378 9 -124 20 -184 58 -317 16 -58 34 -123 38 -146 19 -89 93 -339 104 -346
20 -13 31 -2 28 28 -2 16 -17 81 -34 144 -17 63 -36 140 -43 170 -6 30 -26
105 -43 165 -40 139 -62 268 -62 358 0 112 40 177 160 255 30 19 87 56 125 82
69 45 224 112 335 145 30 10 61 19 68 21 24 7 7 29 -24 31 -16 1 -51 -6 -79
-16z"/>
<path d="M1895 3910 c-22 -11 -43 -19 -47 -20 -8 0 -69 -27 -178 -79 -193 -90
-280 -165 -346 -294 -33 -63 -38 -117 -21 -207 16 -87 100 -380 122 -427 8
-17 15 -36 15 -43 0 -22 31 -70 45 -70 24 0 26 17 7 72 -35 101 -51 153 -71
238 -11 47 -33 128 -50 180 -40 123 -40 176 -1 255 33 65 61 100 100 128 34
23 37 22 43 -18 5 -32 60 -188 92 -260 7 -16 25 -61 40 -100 37 -97 72 -155
94 -155 27 0 31 10 17 39 -8 14 -58 134 -111 266 -53 132 -104 245 -113 251
-14 10 -10 15 27 34 24 12 47 18 51 13 4 -4 18 -42 31 -83 28 -89 157 -349
180 -363 9 -6 24 -7 33 -4 14 6 11 15 -18 69 -42 78 -101 211 -141 318 -9 25
-23 56 -32 69 -9 14 -11 27 -6 32 19 19 206 97 219 92 8 -3 14 -13 14 -24 0
-59 135 -360 171 -379 45 -24 40 7 -24 146 -36 76 -72 164 -82 194 -10 30 -22
60 -27 66 -6 8 2 20 23 37 56 43 17 62 -56 27z"/>
<path d="M2014 3846 c-9 -22 11 -77 73 -204 33 -66 66 -120 80 -129 48 -31 44
0 -14 117 -31 63 -66 140 -79 170 -22 55 -49 75 -60 46z"/>
<path d="M2670 3600 c0 -11 45 -33 95 -46 38 -9 24 13 -19 31 -56 23 -76 27
-76 15z"/>
<path d="M4930 2090 c0 -17 15 -57 40 -110 3 -8 28 -82 54 -165 26 -82 51
-159 56 -170 5 -11 21 -58 35 -105 33 -102 49 -130 76 -130 25 0 35 25 21 53
-26 56 -115 295 -156 417 -63 191 -81 230 -106 230 -13 0 -20 -7 -20 -20z"/>
<path d="M4846 2015 c-3 -9 -4 -20 -1 -25 13 -20 89 -247 121 -360 36 -124 54
-160 82 -160 9 0 12 6 7 18 -4 9 -27 82 -51 162 -51 169 -118 348 -137 368
-12 11 -15 11 -21 -3z"/>
<path d="M1760 1380 c0 -18 39 -122 105 -280 31 -74 74 -178 95 -230 20 -52
47 -116 59 -143 21 -45 56 -87 73 -87 13 0 9 29 -7 53 -8 12 -41 87 -73 167
-79 192 -178 424 -205 479 -21 43 -47 65 -47 41z"/>
<path d="M1890 1368 c0 -31 39 -131 78 -198 59 -103 136 -268 177 -375 58
-153 89 -200 123 -188 31 12 4 78 -188 458 -64 127 -124 249 -132 273 -12 31
-22 42 -37 42 -12 0 -21 -5 -21 -12z"/>
</g>
</svg>
